<svg xmlns="http://www.w3.org/2000/svg" xmlns:xlink="http://www.w3.org/1999/xlink" width="500" zoomAndPan="magnify" viewBox="0 0 375 374.999991" height="500" preserveAspectRatio="xMidYMid meet" version="1.0"><defs><g/><clipPath id="69a0f9be68"><path d="M 127.023438 124.898438 L 252.273438 124.898438 L 252.273438 250.148438 L 127.023438 250.148438 Z M 127.023438 124.898438 " clip-rule="nonzero"/></clipPath></defs><g clip-path="url(#69a0f9be68)"><path fill="#08070b" d="M 127.023438 124.898438 L 235.539062 124.898438 L 252.214844 141.640625 L 252.214844 250.089844 L 143.699219 250.089844 L 127.023438 233.414062 Z M 135.414062 225.058594 L 227.183594 225.058594 L 227.183594 133.285156 L 135.414062 133.285156 Z M 135.414062 225.058594 " fill-opacity="1" fill-rule="nonzero"/></g><g fill="#08070b" fill-opacity="1"><g transform="translate(175.547238, 209.056553)"><g><path d="M 32.398438 -16.167969 L 37.476562 -16.167969 L 37.476562 -27.320312 L 16.910156 -27.320312 L 16.910156 -43.300781 L 5.761719 -43.300781 L 5.761719 -27.320312 L 1.546875 -27.320312 L 1.546875 -16.167969 L 5.761719 -16.167969 L 5.761719 0.0625 L 16.910156 0.0625 L 16.910156 -16.167969 L 21.1875 -16.167969 C 21.992188 -3.714844 28.992188 5.636719 37.847656 5.636719 L 37.847656 -5.511719 C 36.113281 -5.511719 33.015625 -9.476562 32.398438 -16.167969 Z M 37.476562 -32.148438 L 37.476562 -43.300781 L 26.265625 -43.300781 L 26.265625 -32.148438 Z M 37.476562 -32.148438 "/></g></g></g><g fill="#08070b" fill-opacity="1"><g transform="translate(143.809132, 182.015889)"><g><path d="M 3.097656 -43.300781 L 3.097656 -17.902344 L 14.246094 -17.902344 L 14.246094 -32.148438 L 20.257812 -32.148438 L 20.257812 0 L 31.40625 0 L 31.40625 -32.148438 L 37.414062 -32.148438 L 37.414062 -21.558594 L 48.628906 -21.558594 L 48.628906 -43.300781 Z M 3.097656 -43.300781 "/></g></g></g></svg>