<svg xmlns="http://www.w3.org/2000/svg" xmlns:xlink="http://www.w3.org/1999/xlink" width="500" zoomAndPan="magnify" viewBox="0 0 375 374.999991" height="500" preserveAspectRatio="xMidYMid meet" version="1.0"><defs><g/><clipPath id="831952c1e5"><path d="M 93.824219 90.535156 L 288 90.535156 L 288 284.785156 L 93.824219 284.785156 Z M 93.824219 90.535156 " clip-rule="nonzero"/></clipPath></defs><g clip-path="url(#831952c1e5)"><path fill="#08070b" d="M 93.824219 90.535156 L 261.914062 90.535156 L 287.746094 116.46875 L 287.746094 284.457031 L 119.65625 284.457031 L 93.824219 258.625 Z M 106.820312 245.679688 L 248.972656 245.679688 L 248.972656 103.527344 L 106.820312 103.527344 Z M 106.820312 245.679688 " fill-opacity="1" fill-rule="nonzero"/></g><g fill="#08070b" fill-opacity="1"><g transform="translate(168.986173, 220.889981)"><g><path d="M 50.183594 -25.042969 L 58.050781 -25.042969 L 58.050781 -42.316406 L 26.195312 -42.316406 L 26.195312 -67.070312 L 8.921875 -67.070312 L 8.921875 -42.316406 L 2.398438 -42.316406 L 2.398438 -25.042969 L 8.921875 -25.042969 L 8.921875 0.0976562 L 26.195312 0.0976562 L 26.195312 -25.042969 L 32.816406 -25.042969 C 34.0625 -5.757812 44.90625 8.730469 58.625 8.730469 L 58.625 -8.539062 C 55.941406 -8.539062 51.140625 -14.679688 50.183594 -25.042969 Z M 58.050781 -49.800781 L 58.050781 -67.070312 L 40.683594 -67.070312 L 40.683594 -49.800781 Z M 58.050781 -49.800781 "/></g></g></g><g fill="#08070b" fill-opacity="1"><g transform="translate(119.825069, 179.005385)"><g><path d="M 4.796875 -67.070312 L 4.796875 -27.730469 L 22.070312 -27.730469 L 22.070312 -49.800781 L 31.375 -49.800781 L 31.375 0 L 48.648438 0 L 48.648438 -49.800781 L 57.953125 -49.800781 L 57.953125 -33.390625 L 75.324219 -33.390625 L 75.324219 -67.070312 Z M 4.796875 -67.070312 "/></g></g></g></svg>