<svg xmlns="http://www.w3.org/2000/svg" xmlns:xlink="http://www.w3.org/1999/xlink" width="500" zoomAndPan="magnify" viewBox="0 0 375 374.999991" height="500" preserveAspectRatio="xMidYMid meet" version="1.0"><defs><g/><clipPath id="2bc468be4a"><path d="M 187.5 0 C 83.945312 0 0 83.945312 0 187.5 C 0 291.054688 83.945312 375 187.5 375 C 291.054688 375 375 291.054688 375 187.5 C 375 83.945312 291.054688 0 187.5 0 Z M 187.5 0 " clip-rule="nonzero"/></clipPath><clipPath id="04e11e4ce6"><path d="M 4.871094 4.871094 L 370.128906 4.871094 L 370.128906 370.128906 L 4.871094 370.128906 Z M 4.871094 4.871094 " clip-rule="nonzero"/></clipPath><clipPath id="18e1383972"><path d="M 187.5 4.871094 C 86.636719 4.871094 4.871094 86.636719 4.871094 187.5 C 4.871094 288.363281 86.636719 370.128906 187.5 370.128906 C 288.363281 370.128906 370.128906 288.363281 370.128906 187.5 C 370.128906 86.636719 288.363281 4.871094 187.5 4.871094 Z M 187.5 4.871094 " clip-rule="nonzero"/></clipPath></defs><g clip-path="url(#2bc468be4a)"><rect x="-37.5" width="450" fill="#ccd6f6" y="-37.499999" height="449.999989" fill-opacity="1"/></g><g clip-path="url(#04e11e4ce6)"><g clip-path="url(#18e1383972)"><path fill="#000000" d="M 4.871094 4.871094 L 370.128906 4.871094 L 370.128906 370.128906 L 4.871094 370.128906 Z M 4.871094 4.871094 " fill-opacity="1" fill-rule="nonzero"/></g></g><g fill="#ccd6f6" fill-opacity="1"><g transform="translate(169.193681, 302.211276)"><g><path d="M 110.394531 -55.089844 L 127.703125 -55.089844 L 127.703125 -93.085938 L 57.625 -93.085938 L 57.625 -147.542969 L 19.628906 -147.542969 L 19.628906 -93.085938 L 5.277344 -93.085938 L 5.277344 -55.089844 L 19.628906 -55.089844 L 19.628906 0.210938 L 57.625 0.210938 L 57.625 -55.089844 L 72.1875 -55.089844 C 74.933594 -12.664062 98.785156 19.207031 128.96875 19.207031 L 128.96875 -18.785156 C 123.058594 -18.785156 112.503906 -32.296875 110.394531 -55.089844 Z M 127.703125 -109.550781 L 127.703125 -147.542969 L 89.496094 -147.542969 L 89.496094 -109.550781 Z M 127.703125 -109.550781 "/></g></g></g><g fill="#ccd6f6" fill-opacity="1"><g transform="translate(61.048466, 210.072376)"><g><path d="M 10.554688 -147.542969 L 10.554688 -61 L 48.546875 -61 L 48.546875 -109.550781 L 69.023438 -109.550781 L 69.023438 0 L 107.015625 0 L 107.015625 -109.550781 L 127.492188 -109.550781 L 127.492188 -73.457031 L 165.695312 -73.457031 L 165.695312 -147.542969 Z M 10.554688 -147.542969 "/></g></g></g></svg>