<svg xmlns="http://www.w3.org/2000/svg" xmlns:xlink="http://www.w3.org/1999/xlink" width="500" zoomAndPan="magnify" viewBox="0 0 375 374.999991" height="500" preserveAspectRatio="xMidYMid meet" version="1.0"><defs><g/><clipPath id="a802ea0f56"><path d="M 124.898438 96.140625 L 250.148438 96.140625 L 250.148438 221.390625 L 124.898438 221.390625 Z M 124.898438 96.140625 " clip-rule="nonzero"/></clipPath></defs><g clip-path="url(#a802ea0f56)"><path fill="#08070b" d="M 124.898438 96.140625 L 233.414062 96.140625 L 250.089844 112.886719 L 250.089844 221.332031 L 141.574219 221.332031 L 124.898438 204.65625 Z M 133.285156 196.300781 L 225.058594 196.300781 L 225.058594 104.53125 L 133.285156 104.53125 Z M 133.285156 196.300781 " fill-opacity="1" fill-rule="nonzero"/></g><g fill="#08070b" fill-opacity="1"><g transform="translate(173.421957, 180.300535)"><g><path d="M 32.398438 -16.167969 L 37.476562 -16.167969 L 37.476562 -27.320312 L 16.910156 -27.320312 L 16.910156 -43.300781 L 5.761719 -43.300781 L 5.761719 -27.320312 L 1.546875 -27.320312 L 1.546875 -16.167969 L 5.761719 -16.167969 L 5.761719 0.0625 L 16.910156 0.0625 L 16.910156 -16.167969 L 21.1875 -16.167969 C 21.992188 -3.714844 28.992188 5.636719 37.847656 5.636719 L 37.847656 -5.511719 C 36.113281 -5.511719 33.015625 -9.476562 32.398438 -16.167969 Z M 37.476562 -32.148438 L 37.476562 -43.300781 L 26.265625 -43.300781 L 26.265625 -32.148438 Z M 37.476562 -32.148438 "/></g></g></g><g fill="#08070b" fill-opacity="1"><g transform="translate(141.683833, 153.259895)"><g><path d="M 3.097656 -43.300781 L 3.097656 -17.902344 L 14.246094 -17.902344 L 14.246094 -32.148438 L 20.257812 -32.148438 L 20.257812 0 L 31.40625 0 L 31.40625 -32.148438 L 37.414062 -32.148438 L 37.414062 -21.558594 L 48.628906 -21.558594 L 48.628906 -43.300781 Z M 3.097656 -43.300781 "/></g></g></g><g fill="#08070b" fill-opacity="1"><g transform="translate(112.992185, 256.473982)"><g><path d="M 9.5 -0.4375 C 9.5 -0.0703125 8.601562 0.109375 6.8125 0.109375 C 5.03125 0.109375 4.140625 -0.0703125 4.140625 -0.4375 L 4.140625 -14.015625 L 0.890625 -14.015625 C 0.585938 -14.015625 0.375 -14.429688 0.25 -15.265625 C 0.1875 -15.660156 0.15625 -16.066406 0.15625 -16.484375 C 0.15625 -16.898438 0.1875 -17.304688 0.25 -17.703125 C 0.375 -18.523438 0.585938 -18.9375 0.890625 -18.9375 L 12.671875 -18.9375 C 12.972656 -18.9375 13.1875 -18.523438 13.3125 -17.703125 C 13.363281 -17.304688 13.390625 -16.898438 13.390625 -16.484375 C 13.390625 -16.066406 13.363281 -15.660156 13.3125 -15.265625 C 13.1875 -14.429688 12.972656 -14.015625 12.671875 -14.015625 L 9.5 -14.015625 Z M 9.5 -0.4375 "/></g></g></g><g fill="#08070b" fill-opacity="1"><g transform="translate(126.575634, 256.473982)"><g><path d="M 9.40625 0.265625 C 6.875 0.265625 4.804688 -0.5625 3.203125 -2.21875 C 1.609375 -3.875 0.8125 -6.296875 0.8125 -9.484375 C 0.8125 -12.671875 1.617188 -15.082031 3.234375 -16.71875 C 4.847656 -18.363281 6.929688 -19.1875 9.484375 -19.1875 C 12.035156 -19.1875 14.097656 -18.378906 15.671875 -16.765625 C 17.242188 -15.148438 18.03125 -12.703125 18.03125 -9.421875 C 18.03125 -6.148438 17.222656 -3.71875 15.609375 -2.125 C 14.003906 -0.53125 11.9375 0.265625 9.40625 0.265625 Z M 9.421875 -13.984375 C 8.554688 -13.984375 7.828125 -13.585938 7.234375 -12.796875 C 6.648438 -12.003906 6.359375 -10.890625 6.359375 -9.453125 C 6.359375 -8.023438 6.632812 -6.925781 7.1875 -6.15625 C 7.75 -5.382812 8.484375 -5 9.390625 -5 C 10.304688 -5 11.046875 -5.382812 11.609375 -6.15625 C 12.179688 -6.9375 12.46875 -8.046875 12.46875 -9.484375 C 12.46875 -10.929688 12.175781 -12.039062 11.59375 -12.8125 C 11.007812 -13.59375 10.285156 -13.984375 9.421875 -13.984375 Z M 9.421875 -13.984375 "/></g></g></g><g fill="#08070b" fill-opacity="1"><g transform="translate(145.408465, 256.473982)"><g><path d="M 6.765625 -0.375 C 6.765625 -0.101562 5.914062 0.03125 4.21875 0.03125 L 2.703125 -0.046875 C 1.804688 -0.117188 1.359375 -0.25 1.359375 -0.4375 L 1.359375 -18.59375 C 1.359375 -18.894531 2.257812 -19.046875 4.0625 -19.046875 C 5.863281 -19.046875 6.765625 -18.894531 6.765625 -18.59375 L 6.765625 -11.65625 L 10.0625 -18.59375 C 10.1875 -18.84375 10.910156 -18.96875 12.234375 -18.96875 C 14.628906 -18.96875 15.890625 -18.757812 16.015625 -18.34375 C 16.015625 -18.3125 16.007812 -18.273438 16 -18.234375 L 11.28125 -9.75 L 16.75 -2.1875 C 16.75 -2.15625 16.578125 -2.003906 16.234375 -1.734375 C 15.410156 -1.015625 14.4375 -0.445312 13.3125 -0.03125 C 12.96875 0.09375 12.625 0.15625 12.28125 0.15625 L 11.640625 0.109375 C 11.054688 -0.0351562 10.601562 -0.40625 10.28125 -1 L 7.203125 -6.90625 L 6.765625 -6.90625 Z M 6.765625 -0.375 "/></g></g></g><g fill="#08070b" fill-opacity="1"><g transform="translate(162.184839, 256.473982)"><g><path d="M 10.140625 -11.421875 C 10.484375 -11.421875 10.65625 -10.789062 10.65625 -9.53125 C 10.65625 -9.144531 10.613281 -8.695312 10.53125 -8.1875 C 10.457031 -7.675781 10.3125 -7.421875 10.09375 -7.421875 L 6.65625 -7.421875 L 6.65625 -4.703125 L 11.640625 -4.703125 C 11.941406 -4.703125 12.148438 -4.304688 12.265625 -3.515625 C 12.316406 -3.171875 12.34375 -2.804688 12.34375 -2.421875 C 12.34375 -2.035156 12.285156 -1.535156 12.171875 -0.921875 C 12.066406 -0.304688 11.890625 0 11.640625 0 L 2.375 0 C 1.695312 0 1.359375 -0.28125 1.359375 -0.84375 L 1.359375 -18.234375 C 1.359375 -18.703125 1.5625 -18.9375 1.96875 -18.9375 L 11.65625 -18.9375 C 12.039062 -18.9375 12.234375 -18.140625 12.234375 -16.546875 C 12.234375 -14.953125 12.039062 -14.15625 11.65625 -14.15625 L 6.65625 -14.15625 L 6.65625 -11.421875 Z M 10.140625 -11.421875 "/></g></g></g><g fill="#08070b" fill-opacity="1"><g transform="translate(175.524758, 256.473982)"><g><path d="M 16.1875 -0.59375 C 16.1875 -0.21875 15.335938 -0.03125 13.640625 -0.03125 C 11.941406 -0.03125 11.019531 -0.164062 10.875 -0.4375 L 6.359375 -8.875 L 6.359375 -0.453125 C 6.359375 -0.128906 5.523438 0.03125 3.859375 0.03125 C 2.191406 0.03125 1.359375 -0.128906 1.359375 -0.453125 L 1.359375 -18.5625 C 1.359375 -18.832031 2.066406 -18.96875 3.484375 -18.96875 C 4.046875 -18.96875 4.703125 -18.914062 5.453125 -18.8125 C 6.203125 -18.71875 6.65625 -18.535156 6.8125 -18.265625 L 11.15625 -9.9375 L 11.15625 -18.421875 C 11.15625 -18.765625 11.992188 -18.9375 13.671875 -18.9375 C 15.347656 -18.9375 16.1875 -18.765625 16.1875 -18.421875 Z M 16.1875 -0.59375 "/></g></g></g><g fill="#08070b" fill-opacity="1"><g transform="translate(193.058765, 256.473982)"><g><path d="M 16.078125 -0.453125 C 16.078125 -0.148438 15.164062 0 13.34375 0 C 11.519531 0 10.609375 -0.148438 10.609375 -0.453125 L 10.609375 -6.6875 L 6.8125 -6.6875 L 6.8125 -0.453125 C 6.8125 -0.148438 5.898438 0 4.078125 0 C 2.265625 0 1.359375 -0.148438 1.359375 -0.453125 L 1.359375 -18.40625 C 1.359375 -18.78125 2.265625 -18.96875 4.078125 -18.96875 C 5.898438 -18.96875 6.8125 -18.78125 6.8125 -18.40625 L 6.8125 -12.046875 L 10.609375 -12.046875 L 10.609375 -18.34375 C 10.609375 -18.601562 11.0625 -18.785156 11.96875 -18.890625 C 12.4375 -18.921875 12.894531 -18.9375 13.34375 -18.9375 L 14.71875 -18.890625 C 15.625 -18.785156 16.078125 -18.601562 16.078125 -18.34375 Z M 16.078125 -0.453125 "/></g></g></g><g fill="#08070b" fill-opacity="1"><g transform="translate(210.484545, 256.473982)"><g><path d="M 3.140625 -4.65625 L 3.140625 -14.28125 L 1.21875 -14.28125 C 0.90625 -14.28125 0.6875 -14.671875 0.5625 -15.453125 C 0.507812 -15.828125 0.484375 -16.210938 0.484375 -16.609375 C 0.484375 -17.015625 0.507812 -17.40625 0.5625 -17.78125 C 0.6875 -18.550781 0.90625 -18.9375 1.21875 -18.9375 L 10.3125 -18.9375 C 10.613281 -18.9375 10.820312 -18.550781 10.9375 -17.78125 C 11.007812 -17.40625 11.046875 -17.015625 11.046875 -16.609375 C 11.046875 -16.210938 11.007812 -15.828125 10.9375 -15.453125 C 10.820312 -14.671875 10.613281 -14.28125 10.3125 -14.28125 L 8.5 -14.28125 L 8.5 -4.65625 L 10.390625 -4.65625 C 10.703125 -4.65625 10.921875 -4.265625 11.046875 -3.484375 C 11.117188 -3.109375 11.15625 -2.722656 11.15625 -2.328125 C 11.15625 -1.929688 11.117188 -1.539062 11.046875 -1.15625 C 10.921875 -0.382812 10.703125 0 10.390625 0 L 1.265625 0 C 0.960938 0 0.757812 -0.382812 0.65625 -1.15625 C 0.582031 -1.539062 0.546875 -1.929688 0.546875 -2.328125 C 0.546875 -2.722656 0.582031 -3.109375 0.65625 -3.484375 C 0.757812 -4.265625 0.960938 -4.65625 1.265625 -4.65625 Z M 3.140625 -4.65625 "/></g></g></g><g fill="#08070b" fill-opacity="1"><g transform="translate(222.09271, 256.473982)"><g><path d="M 6.515625 -0.375 C 6.515625 -0.09375 5.660156 0.046875 3.953125 0.046875 C 2.222656 0.046875 1.359375 -0.0859375 1.359375 -0.359375 L 1.359375 -18 C 1.359375 -18.625 1.691406 -18.9375 2.359375 -18.9375 L 7.515625 -18.9375 C 12.265625 -18.9375 14.640625 -17.085938 14.640625 -13.390625 C 14.640625 -12.273438 14.421875 -11.257812 13.984375 -10.34375 C 13.554688 -9.4375 12.945312 -8.710938 12.15625 -8.171875 L 15.5625 -2.484375 C 15.414062 -2.054688 14.945312 -1.5625 14.15625 -1 C 13.070312 -0.226562 12.175781 0.15625 11.46875 0.15625 C 10.769531 0.15625 10.25 -0.09375 9.90625 -0.59375 L 7.359375 -6.515625 L 6.515625 -6.515625 Z M 6.515625 -14.15625 L 6.515625 -10.09375 L 6.65625 -10.09375 C 8.375 -10.09375 9.234375 -10.804688 9.234375 -12.234375 C 9.234375 -12.878906 9.066406 -13.359375 8.734375 -13.671875 C 8.398438 -13.992188 7.851562 -14.15625 7.09375 -14.15625 Z M 6.515625 -14.15625 "/></g></g></g><g fill="#08070b" fill-opacity="1"><g transform="translate(238.05732, 256.473982)"><g><path d="M 9.40625 0.265625 C 6.875 0.265625 4.804688 -0.5625 3.203125 -2.21875 C 1.609375 -3.875 0.8125 -6.296875 0.8125 -9.484375 C 0.8125 -12.671875 1.617188 -15.082031 3.234375 -16.71875 C 4.847656 -18.363281 6.929688 -19.1875 9.484375 -19.1875 C 12.035156 -19.1875 14.097656 -18.378906 15.671875 -16.765625 C 17.242188 -15.148438 18.03125 -12.703125 18.03125 -9.421875 C 18.03125 -6.148438 17.222656 -3.71875 15.609375 -2.125 C 14.003906 -0.53125 11.9375 0.265625 9.40625 0.265625 Z M 9.421875 -13.984375 C 8.554688 -13.984375 7.828125 -13.585938 7.234375 -12.796875 C 6.648438 -12.003906 6.359375 -10.890625 6.359375 -9.453125 C 6.359375 -8.023438 6.632812 -6.925781 7.1875 -6.15625 C 7.75 -5.382812 8.484375 -5 9.390625 -5 C 10.304688 -5 11.046875 -5.382812 11.609375 -6.15625 C 12.179688 -6.9375 12.46875 -8.046875 12.46875 -9.484375 C 12.46875 -10.929688 12.175781 -12.039062 11.59375 -12.8125 C 11.007812 -13.59375 10.285156 -13.984375 9.421875 -13.984375 Z M 9.421875 -13.984375 "/></g></g></g><g fill="#08070b" fill-opacity="1"><g transform="translate(256.898425, 256.473982)"><g/></g></g></svg>